<?xml version="1.0" encoding="UTF-8" standalone="no"?>
<svg
   xmlns:dc="http://purl.org/dc/elements/1.1/"
   xmlns:cc="http://creativecommons.org/ns#"
   xmlns:rdf="http://www.w3.org/1999/02/22-rdf-syntax-ns#"
   xmlns:svg="http://www.w3.org/2000/svg"
   xmlns="http://www.w3.org/2000/svg"
   xmlns:sodipodi="http://sodipodi.sourceforge.net/DTD/sodipodi-0.dtd"
   xmlns:inkscape="http://www.inkscape.org/namespaces/inkscape"
   version="1.1"
   x="0px"
   y="0px"
   viewBox="0 0 90 90"
   enable-background="new 0 0 90 90"
   xml:space="preserve"
   id="svg88"
   sodipodi:docname="user-icon.svg"
   width="90"
   height="90"
   inkscape:version="1.0.1 (3bc2e81, 2020-09-07)"><metadata
     id="metadata94"><rdf:RDF><cc:Work
         rdf:about=""><dc:format>image/svg+xml</dc:format><dc:type
           rdf:resource="http://purl.org/dc/dcmitype/StillImage" /><dc:title></dc:title></cc:Work></rdf:RDF></metadata><defs
     id="defs92" /><sodipodi:namedview
     pagecolor="#ffffff"
     bordercolor="#666666"
     borderopacity="1"
     objecttolerance="10"
     gridtolerance="10"
     guidetolerance="10"
     inkscape:pageopacity="0"
     inkscape:pageshadow="2"
     inkscape:window-width="1366"
     inkscape:window-height="741"
     id="namedview90"
     showgrid="false"
     inkscape:zoom="4.8444444"
     inkscape:cx="45"
     inkscape:cy="47.993119"
     inkscape:window-x="0"
     inkscape:window-y="0"
     inkscape:window-maximized="1"
     inkscape:current-layer="svg88" /><path
     d="M 59.332,47.266 C 55.16,50.329 50.124,51.985 44.953,51.996 39.775,51.984 34.739,50.328 30.562,47.266 20.42,48.412 12.603,56.522 12.603,66.428 v 7.525 c 0,5.26 2.568,7.209 7.088,7.172 h 50.516 c 4.521,0.037 7.089,-1.912 7.089,-7.172 v -7.525 c 0,-9.907 -7.818,-18.022 -17.964,-19.162 z"
     id="path80" /><path
     d="m 44.953,8.87 c -4.975,0 -9.74,1.974 -13.257,5.49 -3.51,3.516 -5.483,8.281 -5.483,13.25 0,4.969 1.973,9.738 5.483,13.25 3.517,3.516 8.282,5.488 13.257,5.488 4.967,0 9.733,-1.972 13.249,-5.488 3.516,-3.512 5.489,-8.281 5.489,-13.25 0,-4.969 -1.974,-9.735 -5.489,-13.25 C 54.686,10.843 49.92,8.87 44.953,8.87 Z"
     id="path82" /></svg>
